<svg width="42" height="46" viewBox="0 0 42 46" fill="none" xmlns="http://www.w3.org/2000/svg">
<path d="M13.9804 36.5294L0 15.3333L15.3334 15.7843L25.7059 0H41.0393L27.0589 21.1961L32.0197 16.6863L40.5883 30.6667L25.255 30.6666L15.7843 46H0.450981L9.01963 32.0196L13.9804 36.5294Z" fill="#335CF4" fill-opacity="0.1"/>
<path d="M24.5555 8.77778H17.4444C16.9555 8.77778 16.5555 8.37778 16.5555 7.88889C16.5555 7.4 16.9555 7 17.4444 7H24.5555C25.0444 7 25.4444 7.4 25.4444 7.88889C25.4444 8.37778 25.0444 8.77778 24.5555 8.77778Z" fill="#292F33"/>
<path d="M16.5555 7.88892H18.3333V9.66669H16.5555V7.88892ZM23.6667 7.88892H25.4444V9.66669H23.6667V7.88892Z" fill="#292F33"/>
<path d="M16.5555 9.66675H18.3333V15.0001H16.5555V9.66675ZM23.6667 9.66675H25.4444V15.0001H23.6667V9.66675Z" fill="#ADBDFB"/>
<path d="M11.2223 29.2222C10.7334 29.2222 10.3334 28.8222 10.3334 28.3333V23C10.3334 22.5111 10.7334 22.1111 11.2223 22.1111C11.7112 22.1111 12.1112 22.5111 12.1112 23V28.3333C12.1112 28.8222 11.7112 29.2222 11.2223 29.2222ZM13.8889 37.4H13C12.5112 37.4 12.1112 37 12.1112 36.5111V35.6222C12.1112 35.1333 12.5112 34.7333 13 34.7333H13.8889C14.3778 34.7333 14.7778 35.1333 14.7778 35.6222V36.5111C14.7778 37 14.3778 37.4 13.8889 37.4ZM29 37.4H28.1112C27.6223 37.4 27.2223 37 27.2223 36.5111V35.6222C27.2223 35.1333 27.6223 34.7333 28.1112 34.7333H29C29.4889 34.7333 29.8889 35.1333 29.8889 35.6222V36.5111C29.8889 37 29.4889 37.4 29 37.4Z" fill="#292F33"/>
<path d="M28.9999 36.3333H12.9999C12.0222 36.3333 11.2222 35.5333 11.2222 34.5555V15.8889C11.2222 14.9111 12.0222 14.1111 12.9999 14.1111H28.9999C29.9777 14.1111 30.7777 14.9111 30.7777 15.8889V34.5555C30.7777 35.5333 29.9777 36.3333 28.9999 36.3333Z" fill="#1242F2"/>
<path d="M28.1111 23H13.8889C13.4 23 13 22.6 13 22.1111V16.7778C13 16.2889 13.4 15.8889 13.8889 15.8889H28.1111C28.6 15.8889 29 16.2889 29 16.7778V22.1111C29 22.6 28.6 23 28.1111 23ZM28.1111 34.5556H13.8889C13.4 34.5556 13 34.1556 13 33.6667V24.7778C13 24.2889 13.4 23.8889 13.8889 23.8889H28.1111C28.6 23.8889 29 24.2889 29 24.7778V33.6667C29 34.1556 28.6 34.5556 28.1111 34.5556Z" fill="#5678F6"/>
<path d="M13 38.9999C13.4909 38.9999 13.8889 38.602 13.8889 38.1111C13.8889 37.6201 13.4909 37.2222 13 37.2222C12.5091 37.2222 12.1111 37.6201 12.1111 38.1111C12.1111 38.602 12.5091 38.9999 13 38.9999Z" fill="#292F33"/>
<path d="M29 38.9999C29.4909 38.9999 29.8889 38.602 29.8889 38.1111C29.8889 37.6201 29.4909 37.2222 29 37.2222C28.5091 37.2222 28.1111 37.6201 28.1111 38.1111C28.1111 38.602 28.5091 38.9999 29 38.9999Z" fill="#292F33"/>
<path d="M27.6667 17.6667H14.3334C14.0889 17.6667 13.8889 17.4667 13.8889 17.2223C13.8889 16.9778 14.0889 16.7778 14.3334 16.7778H27.6667C27.9111 16.7778 28.1111 16.9778 28.1111 17.2223C28.1111 17.4667 27.9111 17.6667 27.6667 17.6667ZM27.6667 25.6667H14.3334C14.0889 25.6667 13.8889 25.4667 13.8889 25.2223C13.8889 24.9778 14.0889 24.7778 14.3334 24.7778H27.6667C27.9111 24.7778 28.1111 24.9778 28.1111 25.2223C28.1111 25.4667 27.9111 25.6667 27.6667 25.6667Z" fill="#0A2FB8"/>
<path d="M15.2222 17.6667H14.3334C14.0889 17.6667 13.8889 17.4667 13.8889 17.2223C13.8889 16.9778 14.0889 16.7778 14.3334 16.7778H15.2222C15.4667 16.7778 15.6667 16.9778 15.6667 17.2223C15.6667 17.4667 15.4667 17.6667 15.2222 17.6667ZM15.2222 25.6667H14.3334C14.0889 25.6667 13.8889 25.4667 13.8889 25.2223C13.8889 24.9778 14.0889 24.7778 14.3334 24.7778H15.2222C15.4667 24.7778 15.6667 24.9778 15.6667 25.2223C15.6667 25.4667 15.4667 25.6667 15.2222 25.6667Z" fill="#F5F8FA"/>
</svg>
