<svg width="91" height="80" viewBox="0 0 91 80" fill="none" xmlns="http://www.w3.org/2000/svg">
<path d="M18.1624 15.9227C13.6064 15.765 6.57542 14.0056 4.08573 13.3477C3.62971 13.2271 3.18413 13.5732 3.20478 14.0444C3.26376 15.3902 3.42946 17.8903 3.87915 19.6258C5.7679 26.9149 17.4571 30.3235 16.2227 34.4381C15.1647 37.9648 8.46391 41.1389 5.64252 44.6656C2.93833 48.0458 2.409 54.8021 2.31242 56.687C2.29701 56.9879 2.4819 57.2545 2.76797 57.3488C4.43834 57.8994 10.321 59.6542 17.4571 59.6542C23.5008 59.6542 32.4219 58.7447 34.8272 58.4871C35.1825 58.449 35.4441 58.155 35.4375 57.7977C35.4016 55.85 35.1558 49.7787 33.5037 46.0763C30.9434 40.3384 22.1102 37.4358 22.3945 34.4381C22.8508 29.6269 26.8539 28.2573 30.506 25.0922C34.6569 21.4948 35.5508 15.8345 35.7433 13.5636C35.7843 13.0793 35.3184 12.7358 34.8558 12.8847C32.153 13.7551 24.1714 16.1307 18.1624 15.9227Z" fill="#F5F7FE"/>
<path d="M47.0821 26.6791C45.9705 25.4246 45.267 23.3101 44.8673 21.7227C44.7699 21.3356 44.0383 21.3216 43.9273 21.7051C43.4979 23.1878 42.7923 25.1242 41.792 26.3264C40.6711 27.6734 38.5012 28.9146 37.3827 29.5C37.1126 29.6414 37.1186 30.0505 37.393 30.1832C38.4391 30.6893 40.3777 31.7179 41.4393 32.8509C42.7759 34.2771 43.6289 36.8359 44.0703 38.4954C44.1678 38.862 44.7788 38.8797 44.8957 38.5188C45.2982 37.2766 45.9415 35.5657 46.7294 34.4379C47.9344 32.713 50.4368 30.9787 51.59 30.2329C51.8356 30.0739 51.8063 29.6908 51.5397 29.5702C50.4378 29.072 48.2242 27.968 47.0821 26.6791Z" fill="#F5F7FE"/>
<path d="M44.4115 20.8962C44.7171 20.9019 45.2133 21.0517 45.3658 21.5447L45.3796 21.5936L45.4578 21.8953C45.8649 23.4248 46.5223 25.2504 47.4774 26.3282C47.9949 26.9122 48.7792 27.4775 49.5968 27.9672C50.4073 28.4526 51.2167 28.844 51.757 29.0882C52.4034 29.3806 52.4751 30.2897 51.8765 30.677C51.3089 31.0441 50.4114 31.6533 49.5104 32.3801C48.603 33.1121 47.7219 33.9399 47.1622 34.741C46.4233 35.7988 45.7995 37.4433 45.3982 38.6821C45.2439 39.1579 44.7884 39.3183 44.4597 39.3089C44.1309 39.2994 43.6866 39.1136 43.5584 38.6314C43.3415 37.816 43.0251 36.7871 42.6026 35.7925C42.1773 34.791 41.6591 33.8599 41.0524 33.2125C40.0662 32.1602 38.2129 31.168 37.1617 30.6594C36.4949 30.3367 36.4828 29.3736 37.1365 29.0314L37.5922 28.7869C38.0876 28.5148 38.69 28.1627 39.2908 27.7595C40.0981 27.2178 40.872 26.6041 41.3845 25.9882C42.3086 24.8776 42.9906 23.0359 43.4185 21.5581L43.4337 21.5096C43.6037 21.0215 44.1059 20.8905 44.4115 20.8962ZM44.3911 21.9983C43.9555 23.4705 43.2396 25.4128 42.1979 26.6647C41.5895 27.3958 40.7178 28.0762 39.8804 28.6381C39.154 29.1255 38.4302 29.5389 37.8798 29.8346C38.9701 30.377 40.7753 31.3695 41.8246 32.4893C42.5545 33.2682 43.131 34.3296 43.5766 35.3789C43.9713 36.3083 44.2746 37.2566 44.4948 38.0459C44.9037 36.8284 45.5255 35.2364 46.295 34.1349C46.9403 33.2112 47.9128 32.3094 48.846 31.5566C49.6711 30.8911 50.4891 30.3232 51.0726 29.9382C50.5248 29.6831 49.7923 29.3176 49.0534 28.8751C48.2033 28.366 47.3098 27.7349 46.6852 27.0301C45.5174 25.7121 44.7987 23.5766 44.3911 21.9983Z" fill="#141412"/>
<path d="M12.696 21.5656C11.9046 19.833 11.3536 17.2194 11.0967 15.8236C11.0098 15.3512 11.4189 14.9447 11.8939 15.0157C14.0083 15.3314 19.1595 16.0117 22.7472 15.7465C26.6843 15.4555 32.1582 13.773 34.3276 13.0639C34.7891 12.913 35.2629 13.2546 35.2434 13.7397C35.1938 14.9756 35.0397 17.1037 34.5617 18.5679C33.6192 21.455 32.2859 22.7693 30.3296 25.0923C28.2307 27.5848 24.3576 30.4588 23.1305 31.3436C22.8981 31.5111 22.594 31.5174 22.3571 31.3562C20.7577 30.2672 14.6914 25.9341 12.696 21.5656Z" fill="#9EB2FA"/>
<path d="M12.6956 47.9913C11.7765 50.2103 10.7102 56.1245 10.3517 58.2091C10.2826 58.6107 10.567 58.981 10.973 59.0153C12.8818 59.1761 18.0593 59.5554 21.8651 59.3016C26.2634 59.0084 32.6119 58.4714 34.6275 58.2986C34.9917 58.2674 35.2662 57.9652 35.2586 57.5997C35.2309 56.2599 35.1078 53.1434 34.5613 51.2972C33.6188 48.1133 33.5033 46.0764 31.0346 43.6077C28.6056 41.1787 24.6334 37.9328 23.3426 36.891C23.094 36.6904 22.7495 36.6836 22.4975 36.88C20.8226 38.1855 14.6803 43.1996 12.6956 47.9913Z" fill="#9EB2FA"/>
<path d="M35.7988 12.0435C36.0727 12.0451 36.2968 12.2546 36.3223 12.5215L36.3247 12.5756V12.589C36.3246 12.5972 36.3246 12.6091 36.3244 12.6245C36.324 12.6556 36.3231 12.7012 36.3219 12.7595C36.3196 12.8761 36.3154 13.0446 36.3075 13.2537C36.2917 13.6717 36.2613 14.2538 36.2038 14.911C36.09 16.212 35.8656 17.8575 35.411 19.1021C34.8626 20.6034 33.7149 22.2456 32.7367 23.4854C32.2425 24.1116 31.7816 24.6475 31.4441 25.0269C31.2753 25.2167 31.1369 25.3679 31.0405 25.4719C30.9922 25.5239 30.9542 25.5642 30.9282 25.5918C30.9152 25.6055 30.9051 25.6162 30.8982 25.6235C30.8948 25.627 30.8921 25.6298 30.8903 25.6317C30.8894 25.6327 30.8888 25.6336 30.8882 25.6341C30.888 25.6344 30.8877 25.6346 30.8875 25.6348H30.8872C30.8854 25.6332 30.8603 25.6093 30.5056 25.2687L30.8872 25.6352C30.6848 25.8459 30.3499 25.8526 30.1391 25.6503C29.9284 25.448 29.9217 25.113 30.124 24.9023L30.1257 24.9005C30.1271 24.8991 30.1293 24.8968 30.1323 24.8937C30.1382 24.8875 30.1472 24.878 30.1591 24.8654C30.183 24.8401 30.2189 24.802 30.2649 24.7524C30.3569 24.6533 30.4902 24.5078 30.6537 24.324C30.9809 23.9561 31.4279 23.4363 31.9063 22.83C32.8733 21.6044 33.9299 20.0727 34.417 18.7391C34.8211 17.6327 35.0375 16.104 35.1499 14.8187C35.2055 14.1828 35.2348 13.6187 35.2501 13.2138C35.2578 13.0114 35.262 12.8492 35.2643 12.7381C35.2654 12.6827 35.266 12.64 35.2663 12.6114C35.2665 12.5971 35.2666 12.586 35.2667 12.579V12.5694L35.2698 12.5153C35.2984 12.2487 35.5249 12.0419 35.7988 12.0435Z" fill="#141412"/>
<path d="M3.34892 12.7244C3.34902 12.7263 3.34941 12.7292 3.34961 12.733C3.35002 12.741 3.35045 12.753 3.35133 12.7689C3.35309 12.8007 3.35584 12.8484 3.3596 12.9101C3.36712 13.0334 3.37909 13.2134 3.39576 13.4377C3.42911 13.8865 3.4821 14.5124 3.56107 15.22C3.72015 16.6453 3.98047 18.3661 4.38318 19.6425C5.4191 22.9261 8.38335 25.3908 11.2238 27.557C12.6168 28.6194 13.9931 29.621 15.003 30.5854C15.9955 31.5332 16.7787 32.5745 16.7512 33.7447C16.7198 35.0772 16.0377 36.1973 15.0918 37.198C14.1502 38.1942 12.8866 39.1339 11.594 40.0938C8.96285 42.0479 6.16848 44.126 4.89531 47.1621C3.57958 50.2997 3.00724 55.4024 2.85848 56.9612C2.85248 57.0247 2.88369 57.071 2.9253 57.0914C3.54193 57.3913 4.82013 57.9533 6.27776 58.2541C11.1845 59.2666 17.4806 59.3766 22.9677 59.1829C28.4456 58.9896 33.077 58.4954 34.6383 58.3147C34.6799 58.3099 34.7087 58.2924 34.7279 58.2716C34.7471 58.2507 34.7625 58.2196 34.764 58.1766C34.8257 56.3981 34.8636 50.9969 33.363 47.1497C32.193 44.1501 29.5079 42.1206 26.9667 40.1785C25.7192 39.2252 24.4971 38.2833 23.5922 37.27C22.6802 36.2489 22.0413 35.102 22.0413 33.7323C22.0413 32.9823 22.336 32.2683 22.7287 31.6445C23.1236 31.017 23.6413 30.4429 24.1442 29.9617C24.6491 29.4787 25.152 29.0776 25.5274 28.7976C25.7155 28.6573 25.8726 28.5463 25.9837 28.4701C26.0393 28.4319 26.0835 28.4025 26.1143 28.3822C26.1296 28.3721 26.1416 28.3643 26.1501 28.3588C26.1543 28.3561 26.1577 28.3538 26.1601 28.3523C26.1612 28.3515 26.1621 28.3507 26.1628 28.3502C26.1632 28.35 26.1636 28.35 26.1638 28.3499L26.1642 28.3495L26.2114 28.3226C26.4506 28.2016 26.7472 28.2788 26.895 28.5093C27.0526 28.7553 26.9811 29.0825 26.7352 29.2402C26.735 29.2403 26.7345 29.2408 26.7338 29.2412C26.7325 29.242 26.7303 29.2434 26.7273 29.2453C26.7211 29.2494 26.7111 29.256 26.698 29.2646C26.6719 29.2819 26.6327 29.3082 26.5823 29.3428C26.4813 29.4121 26.3352 29.5146 26.1597 29.6455C25.8077 29.9081 25.3407 30.2815 24.8758 30.7263C24.4089 31.1729 23.9567 31.6797 23.6242 32.2079C23.2895 32.7397 23.0993 33.2562 23.0993 33.7323C23.0993 34.743 23.5626 35.6488 24.3812 36.5654C25.2068 37.4898 26.3435 38.3707 27.609 39.3378C30.0937 41.2367 33.0515 43.4394 34.3487 46.7653C35.937 50.8375 35.8828 56.4396 35.8214 58.2131C35.8007 58.8104 35.3572 59.2963 34.7599 59.3655C33.1831 59.548 28.5212 60.0456 23.0049 60.2403C17.4979 60.4346 11.0989 60.3289 6.06423 59.2901C4.48551 58.9643 3.11837 58.3619 2.46276 58.0429C2.00836 57.8219 1.75899 57.3461 1.80529 56.8606C1.952 55.3233 2.53247 50.0616 3.91995 46.7529C5.325 43.4024 8.3839 41.1602 10.9634 39.2445C12.2763 38.2695 13.4575 37.3868 14.3228 36.4713C15.1837 35.5605 15.6706 34.6796 15.6932 33.7199C15.7092 33.0385 15.2445 32.2789 14.2725 31.3507C13.3179 30.4391 12.0128 29.4892 10.5825 28.3984C7.77617 26.2582 4.52501 23.609 3.37406 19.9608C2.93876 18.581 2.67002 16.7748 2.5096 15.3375C2.42884 14.6139 2.37458 13.9745 2.34049 13.5159C2.32345 13.2865 2.31142 13.102 2.30364 12.9745C2.29975 12.9107 2.2969 12.8612 2.29503 12.8274C2.2941 12.8106 2.29343 12.7977 2.29297 12.7888C2.29273 12.7844 2.2924 12.7809 2.29228 12.7785V12.7747L3.34892 12.7217V12.7244Z" fill="#141412"/>
<path d="M28.5665 15.3936C21.8754 16.7001 16.1252 16.7376 9.52218 15.0409C8.09959 14.6754 6.01537 14.4969 4.40842 13.9829C2.51137 13.3762 0.995806 12.5979 0.344986 12.2397C0.128683 12.1206 0 11.8923 0 11.6454V3.82804C0 3.5664 0.144491 3.32691 0.380595 3.21419C1.10034 2.87057 2.76873 2.1323 4.76109 1.6393C6.81974 1.12989 10.0929 0.811928 12.1672 0.581429C18.5153 -0.12398 23.0742 -0.379993 29.2719 0.933966C30.5671 1.20857 32.1365 1.42077 33.504 1.81572C35.504 2.39339 37.2468 3.08127 38.0185 3.40022C38.277 3.50707 38.4414 3.7596 38.4414 4.03934V11.591C38.4414 11.8666 38.2832 12.1156 38.0309 12.2264C36.691 12.815 32.3154 14.6616 28.5665 15.3936Z" fill="#C0CDFC"/>
<path d="M29.0525 1.96897C23.019 0.689843 18.592 0.931877 12.284 1.63283C10.1628 1.86854 6.98662 2.17859 5.01526 2.6664C3.30018 3.09079 1.83039 3.7094 1.05802 4.06572V11.4219C1.75615 11.7941 3.0968 12.4525 4.73078 12.9752C5.45607 13.2071 6.31264 13.3701 7.21361 13.5248C8.08049 13.6737 9.02011 13.8196 9.78565 14.0163C16.2137 15.668 21.8026 15.6363 28.3637 14.3552C31.806 13.683 35.8422 12.0212 37.3834 11.3534V4.28373C36.5467 3.94461 34.9797 3.34305 33.2105 2.83206C31.8826 2.44851 30.4695 2.26939 29.0525 1.96897ZM38.4414 11.591L38.4397 11.6423C38.4213 11.8971 38.2674 12.1225 38.0308 12.2264L37.3933 12.5013C35.607 13.259 31.8469 14.753 28.5665 15.3936L27.9418 15.5124C21.7224 16.6625 16.2806 16.6843 10.1387 15.1949L9.52218 15.0409C8.09959 14.6754 6.01537 14.4969 4.40842 13.9829C2.74843 13.452 1.38055 12.7897 0.628544 12.3924L0.345096 12.2395C0.142347 12.1279 0.0163426 11.9205 0.00137763 11.6916L0 11.6454V3.82808C0 3.56648 0.144517 3.32708 0.38057 3.21435C1.05534 2.8922 2.56393 2.22302 4.39154 1.73443L4.76109 1.63938C6.81974 1.12997 10.0929 0.811859 12.1672 0.581361C18.5153 -0.124045 23.0742 -0.379921 29.2719 0.934033C30.5671 1.20864 32.1365 1.42077 33.504 1.81571C35.504 2.39338 37.2467 3.08137 38.0185 3.40033C38.2769 3.50716 38.4413 3.75951 38.4414 4.0392V11.591Z" fill="#141412"/>
<path d="M19.573 9.22191C12.2597 9.33484 1.05762 6.40052 1.05762 6.40052V11.415C1.05762 11.415 2.35733 12.2678 5.11336 13.1013C9.88795 14.5454 17.622 15.9959 23.276 15.3937C26.3702 15.0641 30.4217 13.9678 33.3272 12.925C35.7922 12.0402 37.383 11.338 37.383 11.338V6.04785C37.383 6.04785 26.6369 9.11283 19.573 9.22191Z" fill="#5678F6"/>
<path d="M28.5665 67.1126C21.8754 68.4191 16.1252 68.4566 9.52218 66.7599C8.09959 66.3944 6.01537 66.2159 4.40842 65.7019C2.51137 65.0952 0.995806 64.3169 0.344986 63.9587C0.128683 63.8396 0 63.6113 0 63.3644V56.634C0 56.4247 0.0929809 56.2262 0.253795 56.0922L0.83268 55.6098C1.31187 55.2104 2.42395 55.5452 2.85328 55.9977C4.18516 57.4015 7.91402 59.3771 18.339 59.8304C25.4388 60.1391 33.0906 57.8136 35.629 56.9613C36.0713 56.8128 36.5417 57.1163 36.5821 57.5811L37.1597 64.2238C37.1876 64.5441 36.9971 64.8415 36.6921 64.9433C35.4466 65.359 32.1114 66.4204 28.5665 67.1126Z" fill="#5678F6"/>
<path d="M0.832777 55.6096C1.31202 55.2104 2.42411 55.5453 2.85342 55.9978C4.18542 57.4016 7.91438 59.3771 18.339 59.8304C25.4388 60.139 33.0904 57.8135 35.629 56.9611C36.0712 56.8126 36.5415 57.1163 36.5819 57.581L37.1598 64.2236C37.1877 64.5439 36.9971 64.8417 36.6921 64.9434L36.1308 65.1273C34.6095 65.6184 31.6683 66.5068 28.5665 67.1125C21.8754 68.4191 16.1252 68.4565 9.52218 66.7598C8.09959 66.3943 6.01537 66.2158 4.40842 65.7018C2.74841 65.1709 1.38054 64.5086 0.628544 64.1113L0.345096 63.9588C0.128793 63.8397 0 63.6112 0 63.3643V56.6339C2.36506e-05 56.4246 0.093035 56.2262 0.253828 56.0922L0.832777 55.6096ZM1.42929 56.4896L1.05802 56.7992V63.1408C1.75614 63.513 3.09677 64.1715 4.73078 64.6941C5.45608 64.9261 6.31263 65.089 7.21361 65.2438C8.0805 65.3927 9.02011 65.5385 9.78565 65.7352C16.2137 67.3869 21.8026 67.3553 28.3637 66.0741C31.6083 65.4406 34.6843 64.4884 36.0808 64.0304L35.5645 58.0963C32.6645 59.0433 25.2513 61.1898 18.2932 60.8873C7.83097 60.4325 3.72311 58.4517 2.08573 56.7259C2.08476 56.7249 2.07347 56.7139 2.04819 56.6959C2.0213 56.6767 1.98462 56.6538 1.93867 56.6301C1.84464 56.5817 1.73349 56.5404 1.62388 56.5151C1.53846 56.4954 1.47248 56.4897 1.42929 56.4896Z" fill="#141412"/>
<path d="M21.1598 56.8329L66.831 34.0854L89.4021 46.2527L85.5227 48.1702L89.5784 51.7191L85.5227 53.8351L89.5784 56.8329L43.0255 79.404L21.1598 67.2367L26.0972 65.1207L20.8071 62.123L25.5682 59.3215L21.1598 56.8329Z" fill="#2ECC71"/>
<path d="M90.5554 46.2727L86.4672 48.2933L90.5095 51.8301L86.5182 53.9123L90.5967 56.9269L43.0092 79.9998L19.9615 67.1748L24.9085 65.0543L19.75 62.1313L24.5094 59.3306L20.0324 56.8033L66.8412 33.4893L90.5554 46.2727ZM43.0096 69.7744L25.5743 59.9316L21.8654 62.1141L27.287 65.1862L22.3592 67.2981L43.0426 78.8075L88.5612 56.7379L85.465 54.4496L76.2304 58.8963C75.9672 59.0229 75.6511 58.9122 75.5244 58.649C75.3977 58.3858 75.5085 58.0697 75.7717 57.9429L85.2856 53.362L88.6484 51.6072L85.4409 48.8007L43.0096 69.7744ZM67.6709 62.1699C67.9369 62.0491 68.2506 62.1669 68.3714 62.433C68.4921 62.699 68.3743 63.0128 68.1082 63.1335L43.2448 74.4191C42.9787 74.5398 42.665 74.422 42.5443 74.1559C42.4235 73.8899 42.5414 73.5762 42.8074 73.4554L67.6709 62.1699ZM22.2883 56.8615L43.0423 68.5776L88.2499 46.2317L66.8219 34.681L22.2883 56.8615ZM75.4045 43.6907C75.6506 43.8482 75.7225 44.1754 75.565 44.4215C75.4075 44.6676 75.0803 44.7395 74.8342 44.582L70.6727 41.9187C70.6539 41.9274 70.6346 41.9369 70.6142 41.9463C70.4078 42.0403 70.117 42.1665 69.7783 42.2965C69.1117 42.5524 68.2158 42.8398 67.3998 42.9006C66.4252 42.9732 65.3256 42.6771 64.5116 42.3912C64.0959 42.2452 63.7368 42.0952 63.4815 41.9817C63.4168 41.953 63.3591 41.9254 63.3082 41.9018L51.753 47.5367C51.8156 47.5354 51.8788 47.5341 51.9425 47.5332C53.5904 47.5118 55.6867 47.6611 57.1957 48.4256C58.6274 49.1509 60.5572 50.1716 61.8521 51.3324C62.4964 51.91 63.0442 52.5745 63.2538 53.3103C63.4776 54.0959 63.2941 54.8858 62.6367 55.603C62.018 56.2778 60.9705 56.606 59.8335 56.7268C58.6715 56.8503 57.304 56.7691 55.9214 56.5212C53.1807 56.0299 50.225 54.8541 48.6334 53.1364C47.5893 52.0096 47.6076 50.6741 47.8502 49.692C47.875 49.5917 47.9029 49.4943 47.9318 49.4003L36.0053 55.2159C36.4826 55.4999 37.075 55.9879 37.2001 56.7465C37.3446 57.623 36.7687 58.3664 36.3336 58.8029C36.2261 58.9107 36.1172 59.0087 36.0143 59.0964L39.6846 61.4962C39.6998 61.4872 39.7153 61.4775 39.7315 61.468C39.9427 61.3432 40.2398 61.1753 40.5832 61.002C41.2531 60.6639 42.1629 60.2728 42.9696 60.1861C43.939 60.0819 45.091 60.381 45.9474 60.6717C46.3866 60.8208 46.7699 60.9755 47.0436 61.0929C47.1807 61.1517 47.2908 61.2015 47.3673 61.2369C47.4057 61.2545 47.4358 61.2687 47.4565 61.2785C47.4669 61.2834 47.475 61.2872 47.4807 61.2899C47.4835 61.2913 47.4872 61.2933 47.4872 61.2933L47.4893 61.294L47.4903 61.2947L47.5378 61.3209C47.7656 61.4623 47.8536 61.7561 47.7334 62.0021C47.6132 62.2483 47.3272 62.3595 47.0756 62.2666L47.026 62.2453L47.0212 62.2429C47.0172 62.2409 47.0106 62.238 47.0019 62.2339C46.9847 62.2257 46.9585 62.2133 46.9241 62.1974C46.8552 62.1656 46.7538 62.1198 46.6265 62.0652C46.3714 61.9557 46.0144 61.8117 45.6074 61.6736C44.7712 61.3897 43.807 61.16 43.0826 61.2379C42.4778 61.3029 41.7123 61.617 41.0599 61.9463C40.7421 62.1067 40.4662 62.2629 40.2698 62.3789C40.1718 62.4368 40.0941 62.4846 40.0415 62.5174C40.0151 62.5338 39.995 62.5466 39.9819 62.5549C39.9754 62.559 39.9704 62.5619 39.9674 62.5639L39.9643 62.5659L39.6747 62.754L34.1011 59.1098L34.8151 58.6734L34.8164 58.6727C34.8185 58.6715 34.822 58.6691 34.8271 58.6659C34.8373 58.6594 34.8536 58.6492 34.8747 58.6352C34.9169 58.6072 34.9787 58.5646 35.0531 58.5098C35.203 58.3994 35.3978 58.2429 35.5841 58.0559C35.992 57.6468 36.2095 57.2441 36.1558 56.9187C36.1044 56.6065 35.8137 56.3168 35.382 56.078C35.1824 55.9676 34.9848 55.886 34.8354 55.8321C34.7614 55.8053 34.7008 55.7859 34.6601 55.7735C34.6398 55.7673 34.6244 55.7631 34.615 55.7604C34.6103 55.7591 34.6053 55.7577 34.6053 55.7577L33.2205 55.3971L63.3096 40.724L63.5445 40.8435L63.5486 40.8455C63.5522 40.8473 63.558 40.8503 63.5659 40.8541C63.5815 40.8619 63.6056 40.8735 63.6372 40.8886C63.7003 40.9188 63.7936 40.9626 63.9113 41.015C64.1473 41.1199 64.4793 41.2583 64.8622 41.3928C65.6455 41.6679 66.5736 41.901 67.3213 41.8453C67.9798 41.7963 68.7591 41.5544 69.3991 41.3088C69.7136 41.188 69.984 41.0705 70.1754 40.9833C70.2709 40.9398 70.3465 40.9042 70.3975 40.8796C70.423 40.8673 70.4424 40.8576 70.455 40.8514C70.4613 40.8483 70.4659 40.8459 70.4688 40.8445L70.4719 40.8431L70.7419 40.7067L75.4045 43.6907ZM51.9562 48.5909C51.1562 48.6013 50.4396 48.6548 49.9232 48.7056C49.6823 48.7293 49.4855 48.7522 49.3449 48.77C49.316 48.8221 49.2828 48.8837 49.2478 48.9536C49.1228 49.2032 48.9749 49.5501 48.8772 49.9455C48.6814 50.7384 48.6999 51.6513 49.4097 52.4173C50.7727 53.8883 53.4598 55.0049 56.1081 55.4797C57.4199 55.7149 58.6837 55.7853 59.7216 55.675C60.7845 55.5621 61.5057 55.2712 61.8569 54.8881C62.2897 54.4159 62.35 53.9997 62.2361 53.6C62.108 53.1504 61.7366 52.6501 61.1457 52.1204C59.9701 51.0665 58.1646 50.1023 56.7177 49.3693C55.454 48.7291 53.5827 48.5698 51.9562 48.5909ZM89.3334 33.6164C89.5922 33.4809 89.9121 33.5808 90.0477 33.8396C90.1833 34.0984 90.0833 34.4183 89.8245 34.5539L82.4184 38.4333C82.1596 38.5689 81.8397 38.4689 81.7041 38.2101C81.5685 37.9513 81.6685 37.6314 81.9273 37.4958L89.3334 33.6164ZM76.7064 35.8485V28.9714C76.7064 28.6792 76.9432 28.4424 77.2354 28.4424C77.5276 28.4424 77.7644 28.6792 77.7644 28.9714V35.8485C77.7644 36.1407 77.5276 36.3775 77.2354 36.3775C76.9432 36.3775 76.7064 36.1407 76.7064 35.8485Z" fill="#141412"/>
<path fill-rule="evenodd" clip-rule="evenodd" d="M25.5743 59.9316L21.8654 62.1141L27.287 65.1862L22.3592 67.2981L43.0426 78.8075L88.5612 56.7379L85.465 54.4496L76.2304 58.8963C75.9672 59.0229 75.6511 58.9122 75.5244 58.649C75.3977 58.3858 75.5085 58.0697 75.7717 57.9429L85.2856 53.362L88.6484 51.6072L85.4409 48.8007L43.0096 69.7744L25.5743 59.9316ZM68.3714 62.433C68.2506 62.1669 67.9369 62.0491 67.6709 62.1699L42.8074 73.4554C42.5414 73.5762 42.4235 73.8899 42.5443 74.1559C42.665 74.422 42.9787 74.5398 43.2448 74.4191L68.1082 63.1335C68.3743 63.0128 68.4921 62.699 68.3714 62.433Z" fill="#249E58"/>
</svg>
