<svg width="100" height="100" viewBox="0 0 100 100" fill="none" xmlns="http://www.w3.org/2000/svg">
<g clip-path="url(#clip0_28_485)">
<rect width="100" height="100" rx="50" fill="#ECF0FE"/>
<path d="M66.842 33.4858C66.9902 33.4947 67.1189 33.5849 67.1773 33.7214C67.4908 34.4536 68.4959 36.8506 68.9636 38.5512C69.8731 41.8578 69.787 45.3127 69.3603 48.851C69.3603 48.851 70.0348 48.6876 70.9445 48.5823C70.9445 48.5823 71.6616 47.423 71.9348 46.5732C72.1626 45.865 72.331 44.6914 72.331 44.6914C72.331 44.6914 74.7359 44.0083 75.9953 43.404C77.9685 42.4571 80.0558 39.5415 80.0558 39.5415C80.0558 39.5415 77.0298 38.754 75.5002 37.5608C74.3999 36.7025 73.1233 34.8926 73.1233 34.8926C73.1233 34.8926 73.6706 34.855 74.0146 34.7878C76.511 34.3002 78.6693 30.2321 78.6693 30.2321C78.6693 30.2321 77.3305 29.9678 76.5896 29.5388C72.8262 27.3601 71.8358 23.7948 66.884 20.6256C65.4506 19.7083 62.4273 20.3284 62.4273 20.3284C62.4273 20.3284 54.6579 17.6736 49.5526 17.9515C45.1593 18.1907 42.6934 19.0693 38.6585 20.8236C34.1028 22.8043 34.0038 25.0822 30.7356 27.261C28.3007 28.8843 23.3078 28.2514 23.3078 28.2514C23.3078 28.2514 24.0129 31.0693 24.9915 32.609C26.1947 34.5022 29.151 36.5704 29.151 36.5704C29.151 36.5704 28.839 39.7109 28.9529 41.7203C29.1072 44.4414 30.2404 48.5794 30.2404 48.5794C31.161 48.667 31.7929 48.851 31.7929 48.851C31.5809 46.2364 31.6171 43.6167 32.023 40.73C32.3935 38.0951 34.3183 34.5296 34.7904 33.6851C34.8552 33.5692 34.9684 33.496 35.101 33.4883C36.5999 33.4011 45.9488 32.8737 52.1274 32.9062C57.4121 32.9339 65.3663 33.3973 66.842 33.4858Z" fill="black"/>
<path fill-rule="evenodd" clip-rule="evenodd" d="M68.9636 38.5512C68.4959 36.8506 67.4908 34.4536 67.1773 33.7214C67.1189 33.5849 66.9902 33.4947 66.842 33.4858C65.3663 33.3973 57.4121 32.9339 52.1274 32.9062C45.9488 32.8737 36.5999 33.4011 35.101 33.4883C34.9684 33.496 34.8552 33.5692 34.7904 33.6851C34.3183 34.5296 32.3935 38.0951 32.023 40.73C31.6171 43.6167 31.5809 46.2364 31.7929 48.851C32.0464 51.9772 32.6546 55.0962 33.4095 58.6557C33.7964 60.48 34.8172 62.1725 36.1827 63.7061C37.6277 65.3289 39.4586 66.7736 41.3325 68.008C44.9046 70.361 48.6331 71.9496 50.1434 72.5501C50.5917 72.7284 51.0851 72.7213 51.5279 72.5299C52.9828 71.9012 56.5204 70.2699 59.9514 67.9016C62.005 66.4841 64.0203 64.8027 65.5282 62.9142C66.7916 61.3318 67.6987 59.604 67.9733 57.7644C68.4216 54.7607 69.0074 51.7773 69.3603 48.851C69.787 45.3127 69.8731 41.8578 68.9636 38.5512ZM59.1591 48.2569C58.4458 48.3134 57.6381 48.5576 56.8813 48.8564C56.8813 48.8564 57.0712 52.7221 58.862 53.1097C60.9461 53.5607 61.9321 48.5944 61.9321 48.5944C61.0158 48.3621 60.0028 48.1901 59.1591 48.2569ZM41.7287 48.2569C41.1018 48.2578 40.3785 48.3949 39.6882 48.5794C39.6882 48.5794 39.6882 53.4687 42.4219 53.1097C44.2694 52.867 44.5739 48.851 44.5739 48.851C43.6414 48.5229 42.6103 48.2555 41.7287 48.2569Z" fill="#B6C5FB"/>
<path d="M56.8813 48.8564C57.6381 48.5576 58.4458 48.3134 59.1591 48.2569C60.0028 48.1901 61.0158 48.3621 61.9321 48.5944C61.9321 48.5944 60.9461 53.5607 58.862 53.1097C57.0712 52.7221 56.8813 48.8564 56.8813 48.8564Z" fill="black"/>
<path d="M39.6882 48.5794C40.3785 48.3949 41.1018 48.2578 41.7287 48.2569C42.6103 48.2555 43.6414 48.5229 44.5739 48.851C44.5739 48.851 44.2694 52.867 42.4219 53.1097C39.6882 53.4687 39.6882 48.5794 39.6882 48.5794Z" fill="black"/>
<path d="M33.4095 58.6557C32.6546 55.0962 32.0464 51.9772 31.7929 48.851C31.7929 48.851 31.161 48.667 30.2404 48.5794C28.1406 48.3796 24.5387 48.6814 23.506 52.8124C22.6315 56.3106 24.3595 58.953 27.0713 61.3296C29.8369 63.7532 36.1827 63.7061 36.1827 63.7061C34.8172 62.1725 33.7964 60.48 33.4095 58.6557Z" fill="#B6C5FB"/>
<path d="M69.3603 48.851C69.0074 51.7773 68.4216 54.7607 67.9733 57.7644C67.6987 59.604 66.7916 61.3318 65.5282 62.9142C65.5282 62.9142 74.5098 64.4988 77.679 57.7644C79.252 54.4216 77.899 50.3212 74.5098 48.851C73.4984 48.4122 72.0483 48.4545 70.9445 48.5823C70.0348 48.6876 69.3603 48.851 69.3603 48.851Z" fill="#B6C5FB"/>
<path d="M50.8399 81.6321C45.1948 81.7317 41.3325 76.6803 41.3325 76.6803C41.3325 76.6803 33.1449 79.4597 27.7645 80.7408C23.605 81.7311 21.3794 83.4203 18.356 86.4849C15.0002 89.8865 12.4138 97.1809 12.4138 97.1809L27.6195 113.126L27.7645 144.52H73.5194V111.343L88.2759 96.1905C88.2759 96.1905 85.6384 89.6069 82.5318 86.4849C79.2799 83.2169 77.4809 82.0283 72.331 80.5427C67.6066 79.1799 59.9514 76.6803 59.9514 76.6803C59.9514 76.6803 56.4851 81.5325 50.8399 81.6321Z" fill="#001F72"/>
<path d="M51.5279 72.5299C51.0851 72.7213 50.5917 72.7284 50.1434 72.5501C48.6331 71.9496 44.9046 70.361 41.3325 68.008V76.6803C41.3325 76.6803 45.1948 81.7317 50.8399 81.6321C56.4851 81.5325 59.9514 76.6803 59.9514 76.6803V67.9016C56.5204 70.2699 52.9828 71.9012 51.5279 72.5299Z" fill="#B6C5FB"/>
<path d="M59.8523 76.647C59.8467 76.6546 59.84 76.6643 59.8318 76.6753C59.8055 76.7102 59.7659 76.762 59.7136 76.8276C59.609 76.959 59.4526 77.1472 59.2478 77.3735C58.8377 77.8266 58.2324 78.4321 57.4519 79.0405C55.8899 80.2581 53.6323 81.4833 50.8386 81.5327C48.0464 81.582 45.6907 80.357 44.0291 79.1138C43.1988 78.4926 42.5428 77.8689 42.0955 77.3999C41.8718 77.1655 41.7002 76.9701 41.5847 76.8335C41.5272 76.7654 41.484 76.7116 41.4548 76.6753C41.4455 76.6636 41.4377 76.6531 41.4314 76.645V68.189C44.9647 70.4924 48.6156 72.049 50.1072 72.6421C50.5798 72.8299 51.1002 72.8224 51.5671 72.6206C53.0029 72.0001 56.4624 70.4036 59.8523 68.0874V76.647ZM52.1267 33.0054C57.4078 33.0331 65.3587 33.4959 66.8357 33.5845C66.9467 33.5911 67.0431 33.6584 67.0867 33.7603C67.4005 34.4933 68.4023 36.8845 68.8679 38.5776C69.7677 41.849 69.6887 45.2705 69.2683 48.7847L69.2625 48.8394C68.9537 51.3993 68.4673 53.9962 68.0496 56.6226L67.8757 57.7495C67.6215 59.4531 66.8173 61.0647 65.6824 62.5562L65.4509 62.8521C64.1388 64.4954 62.4383 65.984 60.6609 67.2778L59.8953 67.8198C56.8999 69.8874 53.8222 71.3933 52.1267 72.1577L51.489 72.439C51.0705 72.6198 50.6042 72.6268 50.1804 72.4585L49.5154 72.187C47.7444 71.4498 44.5056 69.9792 41.3875 67.9253L40.6882 67.4536C39.0672 66.3311 37.5141 65.0524 36.2566 63.6401C34.8983 62.1146 33.8888 60.4372 33.5066 58.6353L33.2302 57.3208C32.6049 54.2977 32.1127 51.5727 31.8914 48.8433L31.824 47.8647C31.6947 45.5781 31.7666 43.2628 32.1208 40.7437C32.3042 39.4404 32.8732 37.9007 33.4587 36.5767C33.8973 35.5849 34.3437 34.7182 34.6384 34.1694L34.8767 33.7339C34.9134 33.6682 34.9698 33.6215 35.0369 33.6001L35.1072 33.5874C36.6079 33.5002 45.9523 32.973 52.1267 33.0054ZM26.5125 49.1626C27.7824 48.6054 29.189 48.5791 30.2312 48.6782C30.6871 48.7216 31.0714 48.7889 31.3416 48.8452C31.4766 48.8734 31.5836 48.8982 31.656 48.9165C31.6724 48.9206 31.6871 48.9239 31.7 48.9272C31.9573 52.0375 32.5628 55.1424 33.3123 58.6763C33.6898 60.4563 34.6635 62.1065 35.9626 63.604C35.9451 63.6037 35.9265 63.6044 35.907 63.604C35.729 63.6006 35.4709 63.5933 35.1531 63.5767C34.5172 63.5433 33.6405 63.4736 32.6785 63.3286C30.7483 63.0377 28.496 62.4468 27.1365 61.2554C24.4345 58.8875 22.7414 56.2801 23.6023 52.8364C24.111 50.8014 25.2481 49.7174 26.5125 49.1626ZM70.9558 48.6812C72.0588 48.5535 73.4854 48.5146 74.4705 48.9419C77.8038 50.3879 79.1409 54.4255 77.5896 57.7222C76.0243 61.0485 73.0228 62.3243 70.3982 62.7671C69.0866 62.9883 67.8726 63.0006 66.9861 62.9575C66.5431 62.936 66.1821 62.9005 65.9324 62.8706C65.8438 62.86 65.769 62.8487 65.7097 62.8403C66.9251 61.2855 67.8009 59.5888 68.071 57.7788C68.5148 54.8058 69.0952 51.8362 69.449 48.9312C69.4638 48.9278 69.4812 48.9247 69.5007 48.9204C69.5774 48.9036 69.6896 48.8798 69.8298 48.853C70.1103 48.7994 70.504 48.7335 70.9558 48.6812ZM59.1511 48.1577C58.4235 48.2154 57.6049 48.464 56.8445 48.7642L56.7791 48.7905L56.782 48.8618L56.783 48.8647C56.7831 48.8667 56.7828 48.87 56.783 48.8735C56.7834 48.881 56.784 48.8918 56.7849 48.9058C56.7868 48.9347 56.7903 48.9779 56.7947 49.0317C56.8035 49.1394 56.8175 49.2935 56.8406 49.479C56.8867 49.8501 56.9672 50.3499 57.1042 50.8628C57.2412 51.3751 57.4361 51.9063 57.7136 52.3354C57.9911 52.7644 58.358 53.1019 58.8406 53.2065C59.4076 53.3293 59.8938 53.0788 60.2927 52.6626C60.6902 52.2478 61.0141 51.6566 61.2693 51.0601C61.5252 50.4618 61.7149 49.8502 61.8406 49.3892C61.9034 49.1587 61.9509 48.9656 61.9822 48.8296C61.9978 48.7616 62.0095 48.7072 62.0173 48.6704C62.0212 48.6522 62.0242 48.638 62.0261 48.6284C62.0271 48.6238 62.0276 48.6201 62.0281 48.6177C62.0283 48.6164 62.0289 48.6154 62.0291 48.6147V48.6138L62.0476 48.522L61.9568 48.4985L61.6072 48.4136C60.7831 48.2248 59.9036 48.0981 59.1511 48.1577ZM41.7283 48.1577C41.2488 48.1585 40.7169 48.2375 40.1882 48.355L39.6628 48.4839L39.5896 48.5034V48.6362C39.5903 48.6726 39.5918 48.7255 39.5945 48.7925C39.5999 48.927 39.611 49.1187 39.6326 49.3472C39.6756 49.8034 39.7622 50.4097 39.9353 51.0063C40.1081 51.6016 40.3693 52.1972 40.7693 52.6216C41.1482 53.0235 41.6497 53.2697 42.3025 53.2212L42.4353 53.2075C42.9346 53.1418 43.3218 52.822 43.6189 52.3989C43.916 51.9758 44.1309 51.4394 44.2859 50.9175C44.4411 50.3945 44.5376 49.8797 44.5955 49.4966C44.6244 49.3051 44.644 49.146 44.656 49.0347C44.662 48.9789 44.666 48.9348 44.6687 48.9048C44.6701 48.8899 44.671 48.8784 44.6716 48.8706C44.6719 48.8668 44.6724 48.8638 44.6726 48.8618V48.8589L44.6785 48.7827L44.6072 48.7573L44.2517 48.6372C43.4126 48.3646 42.5147 48.1565 41.7283 48.1577ZM59.1667 48.356C59.9662 48.2927 60.9273 48.448 61.8152 48.6675C61.8083 48.6992 61.7994 48.7385 61.7888 48.7847C61.758 48.9185 61.7122 49.1096 61.6501 49.3374C61.5259 49.7933 61.3387 50.3951 61.0876 50.9819C60.8359 51.5704 60.5225 52.1364 60.1492 52.5259C59.7771 52.9139 59.3575 53.116 58.8826 53.0132L58.7322 52.9702C58.3894 52.8492 58.1096 52.582 57.8806 52.228C57.6189 51.8234 57.43 51.3146 57.2957 50.812C57.1616 50.3105 57.0823 49.8202 57.0369 49.4546C57.0142 49.2719 57.0005 49.1204 56.9919 49.0151C56.989 48.9789 56.9868 48.9481 56.9851 48.9233C57.6239 48.675 58.2905 48.4695 58.9001 48.3853L59.1667 48.356ZM41.7292 48.356C42.5711 48.3548 43.5585 48.6046 44.4675 48.9194C44.4651 48.9449 44.4627 48.9764 44.4587 49.0132C44.4469 49.1223 44.4276 49.2788 44.3992 49.4673C44.3422 49.8447 44.2472 50.3495 44.0955 50.8608C43.9434 51.3731 43.7363 51.8865 43.4568 52.2847C43.1773 52.6827 42.8331 52.9555 42.4089 53.0112C41.7601 53.0964 41.2786 52.8719 40.9138 52.4849C40.545 52.0935 40.2937 51.5338 40.1248 50.9517C39.9563 50.3711 39.8722 49.7778 39.8298 49.3286C39.8087 49.1043 39.798 48.9162 39.7927 48.7847C39.7906 48.7328 39.7886 48.6898 39.7878 48.6567C40.4518 48.4833 41.1368 48.3569 41.7292 48.356ZM49.5583 18.0503C52.0955 17.9123 55.3018 18.5038 57.8806 19.1323C59.1687 19.4463 60.2984 19.769 61.1052 20.0132C61.5084 20.1352 61.8317 20.2372 62.0535 20.3091C62.1642 20.345 62.2495 20.3738 62.3074 20.3931C62.3361 20.4026 62.3581 20.4096 62.3728 20.4146C62.38 20.417 62.3857 20.4192 62.3894 20.4204C62.3913 20.421 62.3934 20.4211 62.3943 20.4214L62.3953 20.4224L62.4207 20.4312L62.447 20.4253H62.449C62.4503 20.425 62.453 20.4239 62.4558 20.4233C62.4614 20.4222 62.4695 20.4205 62.4802 20.4185C62.5022 20.4142 62.5348 20.4083 62.5769 20.4009C62.6614 20.3859 62.7846 20.366 62.9363 20.3442C63.2398 20.3008 63.6595 20.2519 64.1228 20.2319C64.5864 20.2119 65.0924 20.2209 65.5691 20.2905C66.0467 20.3604 66.4891 20.4908 66.8308 20.7095C69.2937 22.2858 70.7716 23.9599 72.1072 25.5181C73.4421 27.0755 74.6411 28.5253 76.5398 29.6245C76.9217 29.8456 77.4519 30.022 77.8806 30.1421C78.0961 30.2024 78.2883 30.249 78.4265 30.2808C78.46 30.2885 78.4906 30.2944 78.5173 30.3003C78.5075 30.3178 78.4981 30.3379 78.4861 30.3589C78.4227 30.4701 78.3286 30.6295 78.2087 30.8228C77.9688 31.2096 77.6228 31.7308 77.2 32.2661C76.7769 32.8015 76.2779 33.3497 75.7322 33.7935C75.1858 34.2377 74.5979 34.5733 73.9958 34.6909C73.8287 34.7236 73.6096 34.7493 73.4304 34.7671C73.3412 34.7759 73.262 34.7821 73.2058 34.7866C73.178 34.7889 73.1558 34.7913 73.1404 34.7925C73.1329 34.793 73.1268 34.7932 73.1228 34.7935H73.1169L72.9412 34.8062L73.0427 34.9497L73.0437 34.9507C73.0443 34.9516 73.0454 34.9538 73.0466 34.9556C73.0491 34.9591 73.0527 34.9647 73.0574 34.9712C73.0671 34.9848 73.0819 35.0043 73.1003 35.0298C73.1377 35.0813 73.1917 35.1566 73.2605 35.2485C73.3979 35.4324 73.5928 35.6863 73.822 35.9673C74.2795 36.528 74.8798 37.2028 75.4392 37.6392C76.217 38.2458 77.3689 38.7447 78.3181 39.0913C78.7941 39.2651 79.2221 39.4018 79.531 39.4946C79.6813 39.5398 79.8035 39.5752 79.8894 39.5991C79.887 39.6023 79.885 39.6066 79.8826 39.6099C79.8221 39.6908 79.7333 39.8076 79.6208 39.9507C79.3954 40.2375 79.0744 40.6298 78.6921 41.0513C77.925 41.897 76.9209 42.8503 75.9529 43.3149C75.3296 43.614 74.4183 43.9339 73.6599 44.1802C73.2817 44.303 72.9425 44.4067 72.698 44.48C72.5757 44.5166 72.4769 44.5461 72.4089 44.5659C72.375 44.5758 72.3486 44.5833 72.3308 44.5884C72.322 44.5909 72.3148 44.5929 72.3103 44.5942C72.3082 44.5948 72.3065 44.5949 72.3054 44.5952L72.3044 44.5962H72.3035L72.2419 44.6138L72.2332 44.6772V44.6782L72.2322 44.6802C72.2319 44.6823 72.2318 44.6858 72.2312 44.6899C72.2299 44.6985 72.2278 44.7116 72.2253 44.728C72.2203 44.7612 72.2125 44.8104 72.2029 44.8706C72.1836 44.9911 72.1559 45.1593 72.1208 45.3491C72.0504 45.7301 71.9523 46.1949 71.8406 46.5425C71.7069 46.9583 71.4626 47.4542 71.2498 47.8491C71.1438 48.0457 71.0464 48.2162 70.9753 48.3374C70.9398 48.398 70.9113 48.4469 70.8914 48.48C70.8892 48.4836 70.8865 48.4865 70.8845 48.4897C70.4472 48.5418 70.0668 48.6063 69.7927 48.6587C69.6599 48.6841 69.5518 48.7063 69.4744 48.7231C69.8871 45.2283 69.9617 41.806 69.0593 38.5249L68.8601 37.8569C68.3482 36.2426 67.5424 34.3223 67.2683 33.6821C67.195 33.5111 67.0328 33.3983 66.8474 33.3872L64.6687 33.2632C61.5605 33.0942 56.0934 32.8279 52.1277 32.8071C47.4909 32.7828 41.0714 33.0737 37.5193 33.2573L35.0955 33.3892C34.9697 33.3965 34.8573 33.4508 34.7751 33.5386L34.7039 33.6372C34.4668 34.0612 33.8661 35.1668 33.2781 36.4966C32.7274 37.7419 32.1845 39.191 31.9646 40.4644L31.9246 40.7163C31.5247 43.5597 31.4842 46.145 31.6843 48.7202C31.6106 48.7018 31.5087 48.6772 31.3826 48.6509C31.1203 48.5962 30.7528 48.532 30.3181 48.4878C30.3102 48.4583 30.2996 48.4187 30.2869 48.3706C30.2557 48.2525 30.2111 48.0803 30.157 47.8657C30.0485 47.436 29.9027 46.8348 29.7517 46.1489C29.4493 44.7752 29.1282 43.0665 29.0515 41.7144C28.9949 40.7158 29.0444 39.4334 29.1082 38.3979C29.14 37.8808 29.1755 37.4263 29.2029 37.1011C29.2166 36.9385 29.2278 36.8078 29.2361 36.7183C29.2402 36.6736 29.2436 36.6391 29.2458 36.6157C29.247 36.6042 29.2482 36.5953 29.2488 36.5894C29.2491 36.5864 29.2496 36.584 29.2498 36.5825V36.5806L29.2556 36.5229L29.2078 36.4897V36.4888L29.2058 36.4878C29.2045 36.4869 29.2025 36.4857 29.2 36.4839C29.1944 36.48 29.1854 36.474 29.1746 36.4663C29.1529 36.4509 29.121 36.4278 29.0798 36.3979C28.9971 36.338 28.8776 36.2495 28.7302 36.1382C28.4354 35.9156 28.0296 35.5994 27.5867 35.2241C26.6985 34.4715 25.6681 33.4893 25.075 32.5562C24.5926 31.7972 24.1748 30.7173 23.8767 29.8218C23.7281 29.3752 23.6101 28.9761 23.5291 28.689C23.4911 28.5546 23.4611 28.4445 23.4402 28.3657C23.4633 28.3682 23.4891 28.3707 23.5173 28.3735C23.6596 28.3878 23.8656 28.4063 24.1199 28.4233C24.6281 28.4574 25.3312 28.4868 26.1111 28.4644C27.6656 28.4196 29.5482 28.1716 30.7908 27.3433C32.4375 26.2454 33.2896 25.1181 34.2869 24.0347C35.2827 22.9528 36.4359 21.8981 38.698 20.9146C42.7278 19.1625 45.1818 18.2885 49.5583 18.0503ZM27.7185 113.085L27.6912 113.057L12.5271 97.1567C12.5298 97.1492 12.5336 97.1413 12.5369 97.1323C12.5565 97.0784 12.5854 96.9985 12.6238 96.896C12.7008 96.6905 12.8155 96.3927 12.9626 96.0249C13.257 95.2893 13.6836 94.2729 14.2156 93.1509C15.2809 90.9037 16.761 88.2424 18.4265 86.5542C21.4426 83.497 23.6531 81.8219 27.7878 80.8374C30.4815 80.196 33.8758 79.1798 36.5955 78.3247C37.9555 77.8971 39.1478 77.5097 39.9998 77.229C40.4258 77.0887 40.7672 76.9745 41.0017 76.896C41.1189 76.8567 41.2099 76.8259 41.2712 76.8052C41.2805 76.8021 41.2887 76.7981 41.2966 76.7954C41.2976 76.7967 41.2985 76.798 41.2996 76.7993C41.3297 76.8369 41.3754 76.8918 41.4343 76.9614C41.5521 77.1007 41.7265 77.2993 41.9529 77.5366C42.4061 78.0116 43.0692 78.6439 43.9099 79.2729C45.5906 80.5304 47.9887 81.7812 50.8416 81.731C53.6929 81.6807 55.9916 80.4302 57.574 79.1968C58.3653 78.5799 58.9792 77.966 59.3953 77.5063C59.6033 77.2765 59.7619 77.085 59.8689 76.9507C59.9212 76.885 59.9608 76.8326 59.988 76.7964C59.9942 76.7984 60.0006 76.801 60.0076 76.8032C60.0647 76.8218 60.1495 76.8488 60.2585 76.8843C60.4771 76.9553 60.7954 77.0582 61.1912 77.186C61.9828 77.4417 63.0873 77.7972 64.3396 78.1948C66.8441 78.9901 69.9399 79.9564 72.3035 80.6382C74.8751 81.38 76.6032 82.0452 78.0925 82.9302C79.5817 83.8151 80.8376 84.923 82.4617 86.5552C84.0035 88.1048 85.4343 90.5196 86.4812 92.5542C87.0037 93.5698 87.4292 94.4883 87.7244 95.1528C87.872 95.4852 87.9872 95.7544 88.0652 95.9399C88.1041 96.0327 88.1341 96.1051 88.1541 96.1538C88.156 96.1585 88.1572 96.1632 88.1589 96.1675L73.448 111.274L73.4207 111.303V144.421H27.864L27.7185 113.125V113.085Z" stroke="#001F72" stroke-width="0.198073" stroke-linecap="round"/>
</g>
<defs>
<clipPath id="clip0_28_485">
<rect width="100" height="100" rx="50" fill="white"/>
</clipPath>
</defs>
</svg>
