<svg width="42" height="46" viewBox="0 0 42 46" fill="none" xmlns="http://www.w3.org/2000/svg">
<path d="M13.9804 36.5294L0 15.3333L15.3334 15.7843L25.7059 0H41.0393L27.0589 21.1961L32.0197 16.6863L40.5883 30.6667L25.255 30.6666L15.7843 46H0.450981L9.01963 32.0196L13.9804 36.5294Z" fill="#335CF4" fill-opacity="0.1"/>
<g clip-path="url(#clip0_0_1)">
<path d="M20.6345 8.20981L7.59455 14.9323C7.30955 15.0998 7.22705 15.3498 7.22955 15.7123L7.25455 16.1648L21.022 23.2248L34.757 16.2773C34.757 16.2773 34.772 16.2073 34.772 15.9623C34.772 15.9623 34.7595 15.6398 34.687 15.4898C34.607 15.3198 34.437 15.1673 34.327 15.0748C34.0345 14.8323 33.742 14.6173 33.2445 14.3373C26.112 10.3048 21.422 8.22731 21.422 8.22731C21.1195 8.11481 20.8695 8.07481 20.6345 8.20981Z" fill="#5678F6"/>
<path d="M7.43504 31.0402C8.19504 31.5427 9.58254 32.2027 10.985 32.9627C14.245 34.7277 18.365 36.8727 20.415 37.7152C20.6925 37.8302 20.8575 37.8852 21.05 37.8952C21.1925 37.9027 21.4275 37.8077 21.4275 37.8077C21.4275 37.8077 21.045 24.0102 21.0225 23.2227C21 22.4527 20.6775 22.1977 20.3925 22.0127C19.9475 21.7277 18.9825 21.2827 18.9825 21.2827C18.9825 21.2827 15.6025 19.6027 12.2275 17.8327C10.6225 16.9902 9.26754 16.1277 7.81004 15.4177C7.54254 15.2902 7.22754 15.4502 7.22754 15.7502V30.7002C7.22754 30.8427 7.31504 30.9627 7.43504 31.0402Z" fill="#1242F2"/>
<path d="M34.395 31.1274L21.455 37.7999C21.2475 37.9074 21 37.7574 21 37.5224L21.0225 23.2274C21.0225 23.0899 20.98 22.7874 20.9375 22.6674C20.82 22.3174 21.075 22.1774 21.19 22.1199L34.025 15.5099C34.365 15.3349 34.7725 15.5824 34.7725 15.9649V30.5124C34.7725 30.7699 34.6275 31.0074 34.395 31.1274Z" fill="#0B33C6"/>
<path opacity="0.5" d="M28.6155 18.8974C28.6155 18.8974 21.523 22.5249 21.408 22.8324C21.293 23.1374 26.973 20.4074 27.638 20.0649C28.3905 19.6774 34.3005 16.5174 34.3005 16.1699C34.303 15.8849 28.6155 18.8974 28.6155 18.8974Z" fill="#03103F"/>
<g opacity="0.5">
<path d="M8.20215 30.2124C9.12465 30.6774 10.0396 31.1574 11.1796 31.7399V31.2949C10.0446 30.7149 9.12715 30.2374 8.20215 29.7674V30.2124ZM10.1446 30.4149C10.4046 30.5474 10.5346 30.6149 10.7796 30.7399C10.7821 29.9649 10.7821 29.5774 10.7846 28.8024C10.5396 28.6774 10.4121 28.6124 10.1546 28.4799C10.1496 29.2549 10.1471 29.6399 10.1446 30.4149ZM8.52965 29.5849C8.74465 29.6949 8.86465 29.7574 9.10965 29.8824L9.12215 27.9524C8.87465 27.8249 8.75465 27.7649 8.53715 27.6499C8.53465 28.4249 8.53215 28.8124 8.52965 29.5849Z" fill="#03103F"/>
<path d="M9.73715 28.4976C10.3296 28.8001 10.6446 28.9626 11.1671 29.2276C10.9071 28.7551 10.7646 28.5151 10.4796 28.0301C10.1871 28.2201 10.0346 28.3126 9.73715 28.4976ZM8.20215 27.7101C8.64465 27.9401 8.94215 28.0926 9.52715 28.3926C9.23715 27.9051 9.09215 27.6626 8.82465 27.1851C8.55215 27.3826 8.42465 27.4851 8.20215 27.7101Z" fill="#03103F"/>
</g>
<g opacity="0.5">
<path d="M12.9521 32.35C13.1596 32.4575 13.2671 32.515 13.4746 32.6225C13.4596 31.7025 13.4521 31.2425 13.4346 30.3225C13.2346 30.2175 13.1346 30.165 12.9346 30.0625C12.9421 30.9775 12.9446 31.435 12.9521 32.35Z" fill="#03103F"/>
<path d="M12.1899 32.1874C12.9499 32.5874 13.5399 32.8874 14.2699 33.2774C14.2649 33.0149 14.0624 32.6974 13.7874 32.5499C13.3574 32.3224 13.1124 32.1974 12.6774 31.9699C12.3974 31.8274 12.1899 31.9299 12.1899 32.1874ZM13.6374 29.5899L13.9574 30.2674C13.8574 30.4799 13.8049 30.5874 13.6999 30.7974C13.7899 30.7899 13.8349 30.7874 13.9249 30.7799C14.0449 30.6199 14.1049 30.5399 14.2199 30.3799C14.1149 30.1324 14.0599 30.0074 13.9499 29.7599C14.2549 29.9274 14.4049 30.0124 14.6824 30.1749C14.6824 31.0699 14.0974 31.4649 13.2174 31.0049C12.3374 30.5474 11.7549 29.5249 11.7549 28.6274C12.4099 28.9549 12.8499 29.1699 13.6374 29.5899Z" fill="#03103F"/>
</g>
<path d="M30.1852 17.3726C30.0602 17.2801 16.6377 10.2676 16.6377 10.2676L12.4727 12.4201L26.2352 19.5176L26.2427 19.5251L30.2702 17.4626C30.2702 17.4626 30.2627 17.4426 30.2402 17.4176C30.2227 17.4026 30.1927 17.3801 30.1852 17.3726Z" fill="#B6C5FB"/>
<path d="M30.2499 17.4326C27.9699 18.5551 26.2349 19.5176 26.2349 19.5176C26.2924 19.5751 26.2949 19.6501 26.2949 19.6876C26.2874 19.9776 26.2824 20.2076 26.2749 20.4951C26.2399 21.9826 26.2199 23.4726 26.1699 24.9601C26.3374 24.8601 26.5399 25.0801 26.6924 24.9601C26.9274 24.7751 27.4274 23.9601 27.5024 23.9351C27.6024 23.9026 27.7099 23.9276 27.8124 23.9226C28.2624 23.8976 29.2699 22.9801 29.4849 22.9376C29.6924 22.8976 30.3774 23.0301 30.3774 23.0301C30.3774 23.0301 30.3299 18.4926 30.3124 17.7301C30.3074 17.4601 30.2499 17.4326 30.2499 17.4326Z" fill="#5174F6"/>
</g>
<defs>
<clipPath id="clip0_0_1">
<rect width="32" height="32" fill="white" transform="translate(5 7)"/>
</clipPath>
</defs>
</svg>
